<svg width="50" height="50" viewBox="0 0 50 50" fill="none" xmlns="http://www.w3.org/2000/svg">
<path d="M40.0183 14.2157H10.9008C10.4719 14.2162 10.0609 14.3867 9.75748 14.6901C9.45432 14.9933 9.28362 15.4045 9.28308 15.8334V34.1667C9.28362 34.5956 9.45432 35.0066 9.75748 35.31C10.0609 35.6132 10.4719 35.7839 10.9008 35.7841H40.0183C40.4472 35.7839 40.8585 35.6132 41.1616 35.31C41.4648 35.0066 41.6355 34.5956 41.636 34.1667V15.8334C41.6355 15.4045 41.4648 14.9932 41.1616 14.6901C40.8585 14.3867 40.4472 14.2162 40.0183 14.2157ZM10.9008 15.294H40.0183C40.3161 15.2943 40.5575 15.5356 40.5575 15.8334V18.5294H10.3618V15.8334C10.362 15.5356 10.6031 15.2943 10.9009 15.294H10.9008ZM40.0183 34.7055H10.9008C10.603 34.7052 10.3619 34.4639 10.3616 34.1663V19.6072H40.5573V34.1663C40.5573 34.4639 40.316 34.7052 40.0182 34.7055H40.0183ZM36.7832 16.9112C36.7832 16.6252 36.8966 16.3509 37.0989 16.1486C37.3012 15.9463 37.5755 15.8329 37.8615 15.8329C38.1475 15.8329 38.4218 15.9463 38.6241 16.1486C38.8264 16.3509 38.9401 16.6252 38.9401 16.9112C38.9401 17.1973 38.8264 17.4715 38.6241 17.6738C38.4218 17.8761 38.1476 17.9898 37.8615 17.9898C37.5755 17.9898 37.3012 17.8761 37.0989 17.6738C36.8966 17.4715 36.7832 17.1973 36.7832 16.9112ZM34.0869 16.9112C34.0869 16.6252 34.2007 16.3509 34.4029 16.1486C34.6052 15.9463 34.8795 15.8329 35.1655 15.8329C35.4516 15.8329 35.7258 15.9463 35.9281 16.1486C36.1304 16.3509 36.2438 16.6252 36.2438 16.9112C36.2438 17.1973 36.1304 17.4715 35.9281 17.6738C35.7258 17.8761 35.4516 17.9898 35.1655 17.9898C34.8795 17.9898 34.6052 17.8761 34.4029 17.6738C34.2006 17.4715 34.0869 17.1973 34.0869 16.9112ZM12.5187 16.9112C12.5187 16.6134 12.7601 16.3721 13.0579 16.3721H30.3131C30.6109 16.3721 30.8522 16.6134 30.8522 16.9112C30.8522 17.209 30.6109 17.4504 30.3131 17.4504H13.0579C12.7601 17.4504 12.5187 17.209 12.5187 16.9112Z" fill="#7141B1"/>
<path d="M29.5721 25.1C29.4334 24.9999 29.2403 25.0314 29.1402 25.1695C29.0401 25.3082 29.0712 25.5015 29.2098 25.6016L31.5399 27.2844L29.2011 29.1038C29.0662 29.2086 29.0419 29.403 29.1468 29.5379C29.2078 29.6161 29.299 29.6573 29.3913 29.6573C29.4578 29.6573 29.5247 29.6362 29.5811 29.5921L32.2459 27.5195C32.3229 27.4597 32.3672 27.3672 32.3654 27.2698C32.3635 27.1723 32.3161 27.0817 32.237 27.0244L29.5721 25.1Z" fill="#7141B1"/>
<path d="M18.8118 27.2822L21.2265 25.5384C21.3651 25.4382 21.3963 25.245 21.2962 25.1062C21.1964 24.9678 21.003 24.9366 20.8642 25.0367L18.1148 27.0224C18.0358 27.0795 17.9882 27.1701 17.9864 27.2678C17.9848 27.3652 18.0291 27.4576 18.1058 27.5174L20.8553 29.6559C20.9116 29.7 20.9785 29.7211 21.0451 29.7211C21.1372 29.7211 21.2285 29.6801 21.2896 29.6017C21.3944 29.4666 21.3702 29.2724 21.2353 29.1675L18.8118 27.2822Z" fill="#7141B1"/>
<path d="M25.2861 23.2292C25.1298 23.1599 24.9469 23.2306 24.8778 23.3865L21.6244 30.7281C21.5551 30.8844 21.6257 31.0671 21.7818 31.1363C21.8226 31.1544 21.8651 31.163 21.907 31.163C22.0255 31.163 22.139 31.0944 22.19 30.979L25.4434 23.6374C25.5129 23.481 25.4423 23.2983 25.2861 23.229V23.2292Z" fill="#7141B1"/>
<circle cx="24.2363" cy="29.4526" r="0.408497" fill="#7141B1"/>
<circle cx="25.5027" cy="29.4526" r="0.408497" fill="#7141B1"/>
<circle cx="26.8099" cy="29.4526" r="0.408497" fill="#7141B1"/>
<circle cx="28.1171" cy="29.4526" r="0.408497" fill="#7141B1"/>
<rect x="7.90441" y="7.53678" width="4.77941" height="4.77941" rx="0.919118" stroke="#7141B1" stroke-width="0.735294"/>
<rect x="-0.367647" y="0.367647" width="4.77941" height="4.77941" rx="0.919118" transform="matrix(-1 0 0 1 41.7279 36.9485)" stroke="#7141B1" stroke-width="0.735294"/>
<rect x="-0.367647" y="0.367647" width="4.77941" height="4.77941" rx="0.919118" transform="matrix(-1 0 0 1 41.7279 7.16913)" stroke="#7141B1" stroke-width="0.735294"/>
<rect x="7.90441" y="37.3162" width="4.77941" height="4.77941" rx="0.919118" stroke="#7141B1" stroke-width="0.735294"/>
<rect x="22.6103" y="4.22794" width="4.77941" height="4.77941" rx="0.919118" stroke="#7141B1" stroke-width="0.735294"/>
<rect x="-0.367647" y="0.367647" width="4.77941" height="4.77941" rx="0.919118" transform="matrix(-1 0 0 1 27.0221 40.8088)" stroke="#7141B1" stroke-width="0.735294"/>
<path d="M13.0515 10.386H19.6691C19.8722 10.386 20.0368 10.5506 20.0368 10.7537V14.3383" stroke="#7141B1" stroke-width="0.735294"/>
<path d="M36.9485 39.7059L30.3309 39.7059C30.1278 39.7059 29.9632 39.5413 29.9632 39.3382L29.9632 35.7537" stroke="#7141B1" stroke-width="0.735294"/>
<path d="M36.9485 10.386H30.3309C30.1278 10.386 29.9632 10.5506 29.9632 10.7537V14.3383" stroke="#7141B1" stroke-width="0.735294"/>
<path d="M13.0515 39.7059L19.6691 39.7059C19.8722 39.7059 20.0368 39.5413 20.0368 39.3382L20.0368 35.7537" stroke="#7141B1" stroke-width="0.735294"/>
<path d="M25 9.375V14.3382" stroke="#7141B1" stroke-width="0.735294"/>
<path d="M25 35.7537V40.8088" stroke="#7141B1" stroke-width="0.735294"/>
</svg>
