<svg width="50" height="50" viewBox="0 0 50 50" fill="none" xmlns="http://www.w3.org/2000/svg">
<path d="M45.7095 9.93799H5.20961C4.61303 9.93873 4.04136 10.1758 3.6194 10.5978C3.19773 11.0195 2.96029 11.5915 2.95955 12.188L3.00188 40.6356C3.00263 41.2322 3.10348 41.7834 3.52514 42.2054C3.94717 42.6271 4.6131 42.7283 5.20961 42.7287H45.7095C46.3061 42.7283 47.057 42.6271 47.4786 42.2054C47.9003 41.7834 47.9588 41.2322 47.9596 40.6356V12.188C47.9588 11.5915 47.7214 11.0194 47.2997 10.5978C46.878 10.1758 46.306 9.93873 45.7095 9.93799ZM5.20961 11.4378H45.7095C46.1237 11.4382 46.4594 11.7738 46.4594 12.1881V15.9379H4.45991V12.1881C4.46028 11.7738 4.79539 11.4382 5.20961 11.4378ZM45.7095 41.1589H5.09491C4.68069 41.1585 4.46007 41.0495 4.4597 40.6356V17.4371H46.4592V40.6356C46.4592 41.0495 46.1237 41.1585 45.7095 41.1589ZM41.2097 13.6872C41.2097 13.2894 41.3675 12.9079 41.6489 12.6265C41.9302 12.3451 42.3117 12.1874 42.7096 12.1874C43.1074 12.1874 43.4889 12.3452 43.7702 12.6265C44.0516 12.9079 44.2098 13.2893 44.2098 13.6872C44.2098 14.0851 44.0516 14.4665 43.7702 14.7479C43.4889 15.0293 43.1074 15.1874 42.7096 15.1874C42.3117 15.1874 41.9302 15.0292 41.6489 14.7479C41.3675 14.4665 41.2097 14.0851 41.2097 13.6872ZM37.4598 13.6872C37.4598 13.2894 37.6176 12.9079 37.899 12.6265C38.1803 12.3451 38.5618 12.1874 38.9597 12.1874C39.3575 12.1874 39.739 12.3452 40.0204 12.6265C40.3017 12.9079 40.4595 13.2893 40.4595 13.6872C40.4595 14.0851 40.3017 14.4665 40.0204 14.7479C39.739 15.0293 39.3575 15.1874 38.9597 15.1874C38.5618 15.1874 38.1804 15.0292 37.899 14.7479C37.6176 14.4665 37.4598 14.0851 37.4598 13.6872ZM7.46007 13.6872C7.46007 13.273 7.79576 12.9373 8.20998 12.9373H32.2104C32.6246 12.9373 32.9603 13.273 32.9603 13.6872C32.9603 14.1014 32.6246 14.4371 32.2104 14.4371H8.20998C7.79576 14.4371 7.46007 14.1014 7.46007 13.6872Z" fill="#7141B1"/>
<rect x="17.653" y="20.752" width="14.6512" height="2.09302" rx="1.04651" fill="#7141B1"/>
<rect x="20.2693" y="23.8915" width="9.4186" height="1.04651" rx="0.523256" fill="#7141B1"/>
<rect x="14.6705" y="27.188" width="20.6163" height="3.87209" rx="0.889535" stroke="#7141B1" stroke-width="0.313954"/>
<circle cx="15.0368" cy="32.7868" r="0.523256" fill="#7141B1"/>
<circle cx="17.1298" cy="32.7868" r="0.523256" fill="#7141B1"/>
<rect x="31.2577" y="32.2635" width="4.18605" height="1.04651" rx="0.523256" fill="#7141B1"/>
</svg>
