<svg width="50" height="50" viewBox="0 0 50 50" fill="none" xmlns="http://www.w3.org/2000/svg">
<mask id="mask0_9_184" style="mask-type:luminance" maskUnits="userSpaceOnUse" x="3" y="8" width="44" height="36">
<path d="M3.83758 8.53217H46.1615V43.9834H3.83758V8.53217Z" fill="white"/>
</mask>
<g mask="url(#mask0_9_184)">
<path d="M39.892 42.9148V17.1396H35.7119V42.9148H31.5315V28.1118H27.3515V42.9148H22.6487V22.364H18.4687V42.9148H14.2886V27.5893H10.1082V42.9148H4.88339V8.60693H3.83825V43.9607H46.1621V42.9156L39.892 42.9148Z" fill="#7141B1"/>
</g>
<path d="M12.4593 23.8005C13.1947 23.8045 13.8838 23.4422 14.2976 22.8345C14.7114 22.2267 14.7961 21.453 14.5231 20.7701L18.881 17.5306C19.237 17.9549 19.7403 18.2289 20.2903 18.2965C20.84 18.3644 21.3952 18.2213 21.8435 17.8961L27.4973 22.8808V22.8811C27.3191 23.2008 27.2239 23.5601 27.2203 23.926C27.2183 24.711 27.6308 25.4385 28.3055 25.8398C28.9799 26.2411 29.816 26.2569 30.5048 25.8808C31.194 25.5047 31.6331 24.793 31.6603 24.0084C31.6875 23.2241 31.2987 22.4838 30.6374 22.0607L36.9967 10.3198C37.2527 10.4222 37.5257 10.4754 37.8013 10.4767C38.4918 10.4885 39.1494 10.182 39.5848 9.6458C40.0199 9.10927 40.184 8.40274 40.0301 7.72942C39.8762 7.05605 39.4211 6.49098 38.796 6.19695C38.1708 5.90293 37.4453 5.9131 36.8287 6.22386C36.2117 6.53462 35.7724 7.11216 35.6368 7.78951C35.5012 8.46682 35.6847 9.16875 36.1343 9.69312L29.6395 21.7104H29.4409C28.9933 21.7091 28.5559 21.844 28.187 22.097L22.528 17.1018C22.6911 16.7907 22.7771 16.4448 22.7787 16.0934C22.7794 15.4584 22.5077 14.8536 22.0332 14.4316C21.5583 14.0099 20.9256 13.8117 20.295 13.8869C19.6646 13.962 19.0962 14.3036 18.7343 14.8254C18.372 15.3472 18.2502 15.9989 18.4002 16.6158L13.917 19.939C13.3732 19.4491 12.6228 19.2594 11.9113 19.4324C11.2002 19.605 10.62 20.1179 10.3614 20.8027C10.1032 21.4872 10.1993 22.2558 10.619 22.8554C11.0388 23.4549 11.7272 23.8087 12.4593 23.8004L12.4593 23.8005ZM37.801 7.07967C38.2765 7.07967 38.7051 7.36616 38.8872 7.80555C39.069 8.24462 38.9686 8.7503 38.6322 9.08666C38.2959 9.42303 37.7902 9.52344 37.3511 9.34164C36.9117 9.15952 36.6253 8.73095 36.6253 8.25543C36.6253 7.606 37.1516 7.07967 37.801 7.07967ZM29.4406 22.7555C29.9161 22.7555 30.3447 23.042 30.5268 23.481C30.7089 23.9204 30.6082 24.4261 30.2718 24.7625C29.9358 25.0985 29.4301 25.1993 28.9907 25.0171C28.5513 24.8353 28.2648 24.4064 28.2648 23.9309C28.2648 23.2818 28.7912 22.7555 29.4406 22.7555ZM20.5576 14.9175C21.0331 14.9175 21.462 15.204 21.6438 15.6434C21.826 16.0828 21.7252 16.5885 21.3888 16.9245C21.0528 17.2608 20.5471 17.3616 20.1077 17.1795C19.6683 16.9973 19.3822 16.5688 19.3822 16.0933C19.3822 15.4438 19.9085 14.9175 20.5576 14.9175ZM12.4588 20.404C12.9343 20.404 13.3629 20.6904 13.545 21.1298C13.7268 21.5692 13.6264 22.0749 13.29 22.4109C12.9537 22.7473 12.448 22.848 12.0089 22.6659C11.5695 22.4838 11.283 22.0552 11.283 21.5797C11.283 20.9303 11.8094 20.404 12.4588 20.404Z" fill="#7141B1"/>
</svg>
