<svg width="50" height="50" viewBox="0 0 50 50" fill="none" xmlns="http://www.w3.org/2000/svg">
<mask id="mask0_1_34" style="mask-type:luminance" maskUnits="userSpaceOnUse" x="11" y="6" width="28" height="39">
<path d="M11.2367 6.04395H38.6656V44.0439H11.2367V6.04395Z" fill="white"/>
</mask>
<g mask="url(#mask0_1_34)">
<path fill-rule="evenodd" clip-rule="evenodd" d="M26.9022 33.9353L30.2505 44.0439L33.2759 40.5672L37.7234 41.5684L34.1224 30.6966L33.9872 30.7352L33.5179 31.6977L32.4568 31.8468C32.2573 32.1431 32.0569 32.4398 31.8561 32.7355H30.7859L30.0692 33.5313L29.0087 33.3822L28.1879 34.0708C27.8449 33.9717 27.5014 33.8746 27.1578 33.7757L26.9022 33.9353ZM24.9388 12.7591L27.1705 16.5714L31.6649 17.652L28.6835 20.9283L29.1321 25.5453L25.0453 23.7549L20.7719 25.4922L21.1943 21.0083L18.2394 17.5723L22.6672 16.585L24.9388 12.7591ZM23.0016 33.9353L19.6535 44.0439L16.6278 40.5675L12.18 41.5687L15.781 30.6969L15.9162 30.7355C16.0729 31.0567 16.2302 31.3772 16.3855 31.698L17.4466 31.8471L18.0461 32.7358H19.1179L19.8339 33.5316L20.8947 33.3825C21.1687 33.6122 21.4432 33.8418 21.7162 34.0714L22.746 33.7763L23.0016 33.9353ZM11.6983 23.0136L11.9507 22.002L11.3672 21.1369C11.4976 20.8152 11.6281 20.4929 11.7582 20.1703L11.3013 19.2329L11.8226 18.3291L11.5003 17.3376L12.142 16.5156L11.961 15.4881L12.7116 14.7629L12.6753 13.7204L13.5192 13.107L13.6281 12.0695L14.5493 11.5799L14.801 10.5689L15.7813 10.2121L16.1721 9.2451L17.1934 9.02786L17.7147 8.12497L18.7554 8.05207L19.3971 7.23003L20.4372 7.30294L21.1872 6.57861L22.2076 6.79526L23.0509 6.1828L24.0309 6.53906L24.952 6.04938L25.8744 6.53906L26.8544 6.1828L27.698 6.79526L28.718 6.57861L29.468 7.30294L30.5082 7.23003L31.1502 8.05207L32.1907 8.12497L32.712 9.02786L33.7329 9.2451L34.1237 10.2121L35.1037 10.5689L35.3561 11.5802L36.2772 12.071L36.3861 13.1077L37.2294 13.7207L37.1937 14.7635L37.9443 15.4888L37.7634 16.5162L38.4051 17.3374L38.083 18.3297L38.6043 19.2329L38.1474 20.1706L38.5379 21.1373L37.9549 22.0024L38.2067 23.0146L37.5092 23.7897L37.6181 24.8271L36.8189 25.4971L36.7828 26.54L35.8988 27.0919L35.7179 28.1185C35.4006 28.2596 35.0827 28.4016 34.7652 28.543L34.4423 29.5359L33.4402 29.8231L32.9832 30.7602L31.9502 30.9054C31.7554 31.1941 31.5605 31.4828 31.3654 31.7709H30.3232L29.6257 32.5457L28.593 32.4004L27.7946 33.0708C27.4607 32.9745 27.1257 32.8798 26.7913 32.7836L25.907 33.3364L24.9543 32.9117L24.0012 33.3361L23.1172 32.7836L22.1148 33.0711C21.8492 32.8473 21.5821 32.6239 21.3152 32.4001L20.2825 32.5454L19.5853 31.7706H18.5421L17.9583 30.9052L16.9252 30.7599C16.7738 30.4474 16.6203 30.1354 16.4683 29.8228L15.4659 29.5356L15.1433 28.5427C14.8254 28.4016 14.5078 28.2596 14.1902 28.1182L14.0093 27.0916L13.1253 26.5394L13.089 25.4969C12.8225 25.2731 12.5568 25.0485 12.2897 24.826L12.3992 23.789L11.6983 23.0136ZM24.9519 28.7347C28.6098 28.7347 31.91 26.5343 33.3105 23.1529C33.7506 22.0904 33.9935 20.9218 33.9935 19.6924C33.9935 18.4633 33.7506 17.2945 33.3105 16.2319C31.9097 12.8505 28.6094 10.6504 24.9519 10.6504C21.2939 10.6504 17.9931 12.8505 16.5932 16.2319C16.1531 17.2945 15.9102 18.4633 15.9102 19.6924C15.9102 20.9215 16.1531 22.0903 16.5932 23.1529C17.9938 26.5343 21.2946 28.7347 24.9519 28.7347Z" fill="#7141B1"/>
</g>
</svg>
