<svg width="50" height="50" viewBox="0 0 50 50" fill="none" xmlns="http://www.w3.org/2000/svg">
<path d="M11.4625 29.2749C11.7002 30.2249 12.1751 30.9375 12.4124 31.6498L9.79987 36.6372L13.1248 39.9621L18.1122 37.3496C18.8248 37.8246 19.7748 38.0622 20.4871 38.2995L22.625 44H27.3751L29.0377 38.5375C29.9876 38.2999 30.7003 37.8249 31.4126 37.5876L36.4 40.2001L39.7249 36.8753L37.1123 31.8878C37.5873 31.1752 37.825 30.2252 38.0623 29.5129L44.0001 27.3751V22.625L38.5376 20.9623C38.3 20.0124 37.825 19.2997 37.5877 18.5875L40.2002 13.6L36.8753 10.2751L31.8879 12.8877C31.1753 12.4127 30.2253 12.1751 29.513 11.9378L27.3751 5.99997H22.625L20.7251 11.4624C19.7752 11.7001 19.0625 12.175 18.3502 12.4123L13.3628 9.80013L9.8003 13.3626L12.4129 18.35C11.9379 19.0627 11.7002 20.0127 11.4629 20.7249L6.00014 22.6249V27.375L11.4625 29.2749ZM25 15.4998C30.2251 15.4998 34.5002 19.775 34.5002 25C34.5002 30.2251 30.225 34.5002 25 34.5002C19.7749 34.5002 15.4998 30.225 15.4998 25C15.4995 19.7752 19.7747 15.4998 25 15.4998Z" fill="#7141B1"/>
<path d="M28.8864 18.2687C30.0587 18.9456 31.0339 19.917 31.7155 21.0866C32.3971 22.2562 32.7614 23.5835 32.7723 24.9372C32.7832 26.2909 32.4404 27.6239 31.7778 28.8044C31.1153 29.9849 30.1558 30.9719 28.9946 31.6676C27.8334 32.3633 26.5105 32.7437 25.1571 32.7711C23.8037 32.7985 22.4665 32.472 21.2781 31.8238C20.0896 31.1756 19.0911 30.2283 18.3813 29.0755C17.6715 27.9228 17.275 26.6047 17.2312 25.2517L17.2273 24.9999L17.2312 24.7481C17.2747 23.4057 17.6653 22.0975 18.3649 20.9511C19.0645 19.8046 20.0493 18.859 21.2232 18.2065C22.397 17.5539 23.72 17.2166 25.063 17.2275C26.406 17.2384 27.7233 17.5972 28.8864 18.2687ZM25 20.3363C24.8096 20.3363 24.6259 20.4062 24.4836 20.5327C24.3413 20.6592 24.2504 20.8335 24.2282 21.0226L24.2227 21.1135V24.9999L24.2297 25.1017C24.2475 25.2366 24.3003 25.3644 24.3829 25.4725L24.4505 25.5502L26.7823 27.882L26.8554 27.9458C26.9917 28.0515 27.1593 28.1089 27.3318 28.1089C27.5044 28.1089 27.672 28.0515 27.8083 27.9458L27.8814 27.8813L27.9459 27.8082C28.0516 27.6719 28.109 27.5043 28.109 27.3317C28.109 27.1592 28.0516 26.9916 27.9459 26.8553L27.8814 26.7822L25.7773 24.6773V21.1135L25.7718 21.0226C25.7496 20.8335 25.6587 20.6592 25.5164 20.5327C25.3741 20.4062 25.1904 20.3363 25 20.3363Z" fill="#7141B1"/>
</svg>
