<svg width="50" height="50" viewBox="0 0 50 50" fill="none" xmlns="http://www.w3.org/2000/svg">
<path d="M44.5002 22.4989C44.5002 18.3247 40.592 14.6725 34.7925 12.7068C32.8263 6.90789 29.1745 2.99957 25.0003 2.99957C20.8261 2.99957 17.1739 6.90778 15.2082 12.7068C9.40883 14.6725 5.5005 18.3247 5.5005 22.4989C5.5005 26.6741 9.40871 30.3263 15.2077 32.2916C17.1734 38.0914 20.8252 41.9996 25.0003 41.9996C29.1745 41.9996 32.8272 38.0914 34.7925 32.2919C40.5918 30.3266 44.5002 26.6741 44.5002 22.4989ZM24.9999 3.87983C28.6707 3.87983 31.9024 7.27062 33.7675 12.3834C31.1298 11.6081 28.1524 11.1688 24.9999 11.1688C21.8478 11.1688 18.8704 11.6085 16.2322 12.3834C18.097 7.27062 21.3295 3.87983 24.9999 3.87983ZM34.11 13.3891C34.9621 16.0846 35.4514 19.1917 35.4514 22.4997C35.4514 25.8078 34.9621 28.9143 34.11 31.6094C31.4145 32.462 28.3074 32.9512 24.9999 32.9512C21.6923 32.9512 18.5853 32.462 15.8897 31.6099C15.0371 28.9144 14.5484 25.8073 14.5484 22.4997C14.5484 19.1922 15.0376 16.0852 15.8902 13.3891C18.5857 12.5366 21.6923 12.0478 25.0003 12.0478C28.3083 12.0482 31.4145 12.5371 34.11 13.3891ZM6.37983 22.4993C6.37983 18.8294 9.77061 15.5968 14.8834 13.7316C14.1081 16.3694 13.6688 19.3468 13.6688 22.4997C13.6688 25.6518 14.1085 28.6292 14.8834 31.267C9.77061 29.4026 6.37983 26.1701 6.37983 22.4993ZM25.0001 41.1195C21.3302 41.1195 18.0976 37.7288 16.2324 32.616C18.8702 33.3908 21.8476 33.8306 25.0001 33.8306C28.1521 33.8306 31.1296 33.3909 33.7678 32.616C31.9026 37.7288 28.6705 41.1195 25.0001 41.1195ZM35.1165 31.2664C35.8913 28.6291 36.331 25.6517 36.331 22.4992C36.331 19.3471 35.8913 16.3688 35.1165 13.731C40.2292 15.5958 43.62 18.8278 43.62 22.4987C43.62 26.1696 40.2292 29.4021 35.1165 31.2664Z" fill="#7141B1"/>
<path d="M21.75 22.1219L23.2932 20.5787L23.734 21.0196L22.6317 22.1219L23.734 23.2243L23.2932 23.6652L21.75 22.1219ZM24.3067 24.843L25.7053 19.25L26.3101 19.4012L24.9119 24.9942L24.3067 24.843ZM26.8828 23.2243L27.9852 22.1219L26.8828 21.0196L27.324 20.5787L28.8672 22.1219L27.324 23.6652L26.8828 23.2243Z" fill="#7141B1"/>
<circle cx="25" cy="22.5" r="19.5" stroke="#7141B1" stroke-width="0.8125"/>
<rect x="32" y="24" width="14.91" height="14.91" rx="7.455" fill="white"/>
<path d="M39.5 27.4062C41.7333 27.4062 43.5499 29.2228 43.5499 31.4561C43.5499 33.6894 41.7331 35.5068 39.5 35.5068C37.2667 35.5068 35.4501 33.6902 35.4501 31.4568C35.4499 29.2236 37.2667 27.4062 39.5 27.4062ZM39.5 26.6727C36.8582 26.6727 34.7168 28.8143 34.7168 31.456C34.7168 34.0978 36.8584 36.2392 39.5 36.2392C42.1416 36.2392 44.2832 34.0976 44.2832 31.456C44.283 28.8141 42.1414 26.6727 39.5 26.6727Z" fill="#7141B1"/>
<mask id="mask0_10_191" style="mask-type:luminance" maskUnits="userSpaceOnUse" x="32" y="24" width="15" height="15">
<path d="M32 24H47V38.9492H32V24Z" fill="white"/>
</mask>
<g mask="url(#mask0_10_191)">
<path d="M39.5 24.7337C43.2074 24.7337 46.223 27.7494 46.223 31.4567C46.223 35.1643 43.2072 38.1792 39.5 38.1792C35.7928 38.1792 32.777 35.1634 32.777 31.4562C32.7768 27.7488 35.7928 24.7337 39.5 24.7337ZM39.5 24.0004C35.3817 24.0004 32.0433 27.3389 32.0433 31.457C32.0433 35.5751 35.3817 38.9128 39.5 38.9128C43.6181 38.9128 46.9567 35.5742 46.9567 31.4561C46.9565 27.338 43.6181 24.0004 39.5 24.0004Z" fill="#7141B1"/>
<path d="M39.9214 30.2813V33.0567H39.4187V30.7705H39.4024L38.7533 31.1852V30.7245L39.4431 30.2813H39.9214Z" fill="#7141B1"/>
</g>
<mask id="mask1_10_191" style="mask-type:luminance" maskUnits="userSpaceOnUse" x="35" y="37" width="9" height="11">
<path d="M35.7267 37.6915H43.5994V47.4695H35.7267V37.6915Z" fill="white"/>
</mask>
<g mask="url(#mask1_10_191)">
<path d="M35.7411 47.469V37.8699H36.4747V45.5935L39.7823 42.0108L42.8312 45.4967V37.7275H43.5647V47.4491L39.7677 43.108L35.7411 47.469Z" fill="#7141B1"/>
</g>
</svg>
