<svg width="50" height="50" viewBox="0 0 50 50" fill="none" xmlns="http://www.w3.org/2000/svg">
<path d="M17.0405 17.5442L18.0756 18.8752C17.6587 19.534 17.336 20.2468 17.121 20.9995L15.5278 21.2011C15.2723 21.2348 15.0841 21.4498 15.0841 21.6985V24.2666C15.0841 24.5222 15.2722 24.7372 15.5278 24.764L16.9799 24.9457C17.1547 25.7861 17.4571 26.5928 17.8874 27.3321L17.047 28.4144C16.8926 28.616 16.906 28.8984 17.0873 29.08L18.9023 30.895C19.0839 31.0767 19.366 31.0901 19.5679 30.9353L20.5697 30.1554C21.3427 30.6528 22.1831 31.0158 23.0706 31.2311L23.2251 32.4479C23.2588 32.7035 23.4738 32.8917 23.7225 32.8917H26.2906C26.5462 32.8917 26.7612 32.7035 26.788 32.4479L26.9425 31.2311C27.83 31.0161 28.6701 30.6529 29.4434 30.1554L30.4452 30.9353C30.6468 31.0897 30.9292 31.0763 31.1109 30.895L32.9259 29.08C33.1075 28.8984 33.1209 28.6163 32.9661 28.4144L32.1257 27.3321C32.5492 26.5859 32.8584 25.7857 33.0332 24.9457L34.4853 24.764C34.7409 24.7303 34.9291 24.5153 34.9291 24.2666V21.6985C34.9291 21.4429 34.7409 21.2279 34.4853 21.2011L32.8921 20.9995C32.6771 20.2464 32.3545 19.5339 31.9375 18.8752L32.9726 17.5442C33.1271 17.3426 33.1137 17.0602 32.9324 16.8786L31.1174 15.0636C30.9358 14.8819 30.6537 14.8685 30.4517 15.0233L29.0334 16.1259C28.3949 15.763 27.7158 15.4874 27.0233 15.3123L26.8015 13.5107C26.7677 13.2551 26.5527 13.067 26.304 13.067H23.736C23.4804 13.067 23.2653 13.2551 23.2385 13.5107L23.0166 15.3123C22.3176 15.4871 21.6451 15.7627 21.0066 16.1259L19.5883 15.0233C19.3867 14.8689 19.1042 14.8823 18.9226 15.0636L17.1076 16.8786C16.8995 17.0602 16.886 17.3426 17.0405 17.5442ZM19.2927 16.0922L20.6306 17.1342C20.7988 17.2618 21.0272 17.2752 21.2089 17.161C21.9416 16.7038 22.7349 16.388 23.5485 16.2198C23.7635 16.1795 23.9183 16.0047 23.9451 15.7894L24.1601 14.0752H25.8341L26.0491 15.7894C26.076 16.0044 26.2373 16.1792 26.4458 16.2198C27.2659 16.388 28.0523 16.7038 28.7854 17.161C28.967 17.2752 29.1954 17.2618 29.3637 17.1342L30.7015 16.0922L31.8846 17.2753L30.8962 18.5457C30.7617 18.7205 30.7552 18.9627 30.8828 19.144C31.4006 19.8767 31.7635 20.6969 31.9785 21.5776C32.0256 21.7792 32.2003 21.934 32.4088 21.9608L33.9011 22.149V23.823L32.5292 23.9912C32.3073 24.018 32.1326 24.1928 32.0923 24.4147C31.9379 25.3758 31.5949 26.2837 31.0772 27.1038C30.9629 27.2855 30.9764 27.5139 31.104 27.6821L31.8839 28.6904L30.7008 29.8735L29.7595 29.1407C29.5847 29.0062 29.336 28.9997 29.1613 29.1273C28.3208 29.7256 27.3865 30.1291 26.3781 30.3238C26.1631 30.3641 26.0018 30.5388 25.9746 30.7542L25.8336 31.8836H24.1596L24.0185 30.7542C23.9917 30.5392 23.8304 30.3644 23.615 30.3238C22.6132 30.1288 21.6789 29.7256 20.8319 29.1273C20.6502 28.9997 20.4084 29.0062 20.2336 29.1407L19.2924 29.8735L18.1093 28.6904L18.8892 27.6821C19.0168 27.5139 19.0302 27.2855 18.916 27.1038C18.3983 26.2837 18.0556 25.3762 17.9008 24.4147C17.8671 24.1928 17.6858 24.0249 17.4639 23.9912L16.0859 23.8164V22.1424L17.5782 21.9543C17.7866 21.9274 17.9545 21.7795 18.0085 21.571C18.2235 20.6903 18.5868 19.8703 19.1042 19.1374C19.2318 18.9558 19.2253 18.714 19.0908 18.5392L18.1024 17.2687L19.2927 16.0922Z" fill="#7141B1"/>
<path d="M25.0001 27.7627C27.4808 27.7627 29.4973 25.7458 29.4973 23.2655C29.4973 20.7848 27.4804 18.7682 25.0001 18.7682C22.5194 18.7682 20.5028 20.7851 20.5028 23.2655C20.5024 25.7461 22.5194 27.7627 25.0001 27.7627ZM25.0001 19.7764C26.9228 19.7764 28.489 21.3427 28.489 23.2654C28.489 25.1881 26.9228 26.7543 25.0001 26.7543C23.0774 26.7543 21.5111 25.1881 21.5111 23.2654C21.5107 21.3427 23.0774 19.7764 25.0001 19.7764Z" fill="#7141B1"/>
<path d="M32.4154 14.748C32.6909 14.748 32.9197 14.5196 32.9197 14.2437V10.0419H35.3062C35.5415 11.1916 36.5566 12.0588 37.7735 12.0588C39.165 12.0588 40.2944 10.9295 40.2944 9.53791C40.2944 8.14635 39.165 7.01697 37.7735 7.01697C36.5567 7.01697 35.535 7.88423 35.3062 9.0339H32.4154C32.1399 9.0339 31.9111 9.26232 31.9111 9.53822V14.244C31.9111 14.5192 32.1329 14.748 32.4154 14.748ZM37.7734 8.02531C38.6069 8.02531 39.2861 8.70439 39.2861 9.53796C39.2861 10.3715 38.607 11.0506 37.7734 11.0506C36.9398 11.0506 36.2608 10.3715 36.2608 9.53796C36.2608 8.70442 36.9398 8.02531 37.7734 8.02531Z" fill="#7141B1"/>
<path d="M42.4789 12.3949C41.2621 12.3949 40.2404 13.2621 40.0116 14.4118L37.7731 14.4115C37.4975 14.4115 37.2687 14.6399 37.2687 14.9158V18.445H33.7326C33.4571 18.445 33.2283 18.6734 33.2283 18.9493C33.2283 19.2249 33.4567 19.4537 33.7326 19.4537H37.2687V22.479L36.4286 22.4786C36.1531 22.4786 35.9243 22.7071 35.9243 22.9829C35.9243 23.2585 36.1527 23.4873 36.4286 23.4873H37.7731C38.0486 23.4873 38.2774 23.2588 38.2774 22.9829V19.4537H39.1175C40.3209 19.4537 41.3024 20.4352 41.3024 21.6386V37.2689H8.69794V21.6386C8.69794 20.4352 9.67945 19.4537 10.8828 19.4537H11.7232V22.9829C11.7232 23.2585 11.9517 23.4873 12.2276 23.4873H13.572C13.8476 23.4873 14.0763 23.2588 14.0763 22.9829C14.0763 22.7074 13.8479 22.4786 13.572 22.4786H12.7316V19.4533H16.2677C16.5432 19.4533 16.772 19.2249 16.772 18.949C16.772 18.6734 16.5436 18.4447 16.2677 18.4447H12.7316V14.9158C12.7316 14.6402 12.5032 14.4115 12.2273 14.4115H9.98875C9.75344 13.2617 8.73827 12.3945 7.52144 12.3945C6.12988 12.3945 5.0005 13.5239 5.0005 14.9155C5.0005 16.3074 6.12988 17.4368 7.52144 17.4368C8.73819 17.4368 9.75995 16.5695 9.98875 15.4198H11.7232V18.4451H10.8828C9.12146 18.4451 7.68965 19.8769 7.68965 21.6383V39.1171C7.68965 40.8784 9.12146 42.3103 10.8828 42.3103H18.4456V45.3356L16.2608 45.3359C15.9852 45.3359 15.7564 45.5643 15.7564 45.8402C15.7564 46.1158 15.9849 46.3446 16.2608 46.3446H33.7396C34.0151 46.3446 34.2439 46.1161 34.2439 45.8402C34.2439 45.5647 34.0155 45.3359 33.7396 45.3359H31.5547V42.3106L39.1179 42.3109C40.8792 42.3109 42.311 40.8791 42.311 39.1178L42.3114 21.639C42.3114 19.8776 40.8795 18.4458 39.1182 18.4458H38.2778V15.4205H40.0123C40.2476 16.5702 41.2627 17.4374 42.4796 17.4374C43.8711 17.4374 45.0005 16.3081 45.0005 14.9165C45.0002 13.5246 43.8708 12.3952 42.4792 12.3952L42.4789 12.3949ZM7.52127 16.4285C6.68772 16.4285 6.00862 15.7494 6.00862 14.9158C6.00862 14.0822 6.6877 13.4032 7.52127 13.4032C8.35484 13.4032 9.03392 14.0822 9.03392 14.9158C9.03392 15.7494 8.35484 16.4285 7.52127 16.4285ZM30.5466 45.3358H19.4544V42.3105H30.5466V45.3358ZM41.3023 39.1174C41.3023 40.3208 40.3208 41.3023 39.1174 41.3023H10.882C9.67866 41.3023 8.69715 40.3208 8.69715 39.1174V38.277H41.3016L41.3023 39.1174ZM42.4788 16.4285C41.6452 16.4285 40.9661 15.7495 40.9661 14.9159C40.9661 14.0823 41.6452 13.4032 42.4788 13.4032C43.3123 13.4032 43.9914 14.0823 43.9914 14.9159C43.9914 15.7495 43.3123 16.4285 42.4788 16.4285Z" fill="#7141B1"/>
<path d="M12.2267 12.0584C13.4435 12.0584 14.4652 11.1912 14.694 10.0415H17.0805V14.2433C17.0805 14.5189 17.3089 14.7476 17.5848 14.7476C17.8604 14.7476 18.0891 14.5192 18.0891 14.2433V9.53749C18.0891 9.26194 17.8607 9.03316 17.5848 9.03316H14.6941C14.4588 7.88344 13.4436 7.01624 12.2268 7.01624C10.8352 7.01624 9.70583 8.14562 9.70583 9.53717C9.70583 10.9291 10.8352 12.0584 12.2267 12.0584ZM12.2267 8.02484C13.0603 8.02484 13.7394 8.70392 13.7394 9.53749C13.7394 10.371 13.0603 11.0501 12.2267 11.0501C11.3932 11.0501 10.7141 10.3711 10.7141 9.53749C10.7144 8.70395 11.3931 8.02484 12.2267 8.02484Z" fill="#7141B1"/>
<path d="M24.4954 8.64407V11.5548C24.4954 11.8303 24.7239 12.0591 24.9998 12.0591C25.2753 12.0591 25.5041 11.8307 25.5041 11.5548L25.5037 8.64407C26.6535 8.40876 27.5207 7.39359 27.5207 6.17676C27.5207 4.7852 26.3913 3.65582 24.9997 3.65582C23.6078 3.65582 22.4784 4.7852 22.4784 6.17676C22.4784 7.3935 23.3458 8.41527 24.4954 8.64407ZM24.9998 4.6642C25.8333 4.6642 26.5124 5.34328 26.5124 6.17685C26.5124 7.01039 25.8333 7.6895 24.9998 7.6895C24.1659 7.6895 23.4871 7.01042 23.4871 6.17685C23.4871 5.34331 24.1658 4.6642 24.9998 4.6642Z" fill="#7141B1"/>
</svg>
