<svg width="50" height="50" viewBox="0 0 50 50" fill="none" xmlns="http://www.w3.org/2000/svg">
<path d="M13.693 7.97507C21.2166 7.32122 28.7828 7.32122 36.3064 7.97507L39.9337 8.28715C41.0968 8.38862 42.2154 8.78194 43.186 9.43068C44.1566 10.0794 44.9478 10.9626 45.4863 11.9984C45.5492 12.1263 45.5616 12.2731 45.5211 12.4097C45.4807 12.5462 45.3902 12.6625 45.2678 12.7354L30.2258 22.0497C28.6426 23.0298 26.8215 23.558 24.9596 23.5771C23.0977 23.5961 21.2661 23.1053 19.6632 22.1577L4.52276 13.2083C4.40342 13.1409 4.31259 13.0324 4.26712 12.9031C4.22166 12.7737 4.22463 12.6323 4.2755 12.505C4.76613 11.3418 5.56484 10.3345 6.58559 9.59172C7.60633 8.8489 8.81041 8.39867 10.0681 8.28955L13.693 7.97507Z" fill="#42B6FA"/>
<path d="M4.26374 17.2388C4.17796 17.188 4.0808 17.1595 3.98116 17.156C3.88152 17.1525 3.7826 17.1741 3.69348 17.2188C3.60435 17.2635 3.52787 17.3298 3.47106 17.4118C3.41425 17.4937 3.37892 17.5886 3.36832 17.6877C2.75963 23.732 2.90801 29.8286 3.81003 35.8361C4.04331 37.375 4.7873 38.7907 5.92238 39.8557C7.05747 40.9207 8.51772 41.5731 10.0683 41.7079L13.6932 42.0224C21.219 42.6777 28.7857 42.6777 36.3115 42.0224L39.9364 41.7103C41.4876 41.5746 42.9481 40.921 44.0829 39.8546C45.2176 38.7883 45.9606 37.3711 46.1923 35.8313C47.1204 29.6488 47.2503 23.3727 46.5788 17.1572C46.5671 17.0576 46.5306 16.9626 46.4724 16.881C46.4143 16.7993 46.3365 16.7337 46.2463 16.6901C46.156 16.6466 46.0562 16.6265 45.9561 16.6317C45.8561 16.637 45.7589 16.6675 45.6737 16.7203L32.1225 25.1079C29.9811 26.4331 27.5181 27.1473 25 27.1731C22.4819 27.1989 20.0047 26.5354 17.8366 25.2543L4.26374 17.2388Z" fill="#42B6FA"/>
</svg>
