<svg width="50" height="50" viewBox="0 0 50 50" fill="none" xmlns="http://www.w3.org/2000/svg">
<path d="M31.6667 25H36.1111C36.1111 22.0532 34.9405 19.227 32.8567 17.1433C30.773 15.0595 27.9469 13.8889 25 13.8889V18.3333C26.7681 18.3333 28.4638 19.0357 29.714 20.286C30.9643 21.5362 31.6667 23.2319 31.6667 25ZM40.5556 25H45C45 13.8889 36.0444 5 25 5V9.44444C33.5778 9.44444 40.5556 16.4 40.5556 25ZM42.7778 32.7778C40 32.7778 37.3333 32.3333 34.8444 31.5111C34.0667 31.2667 33.2 31.4444 32.5778 32.0667L27.6889 36.9556C21.3854 33.7403 16.2597 28.6146 13.0444 22.3111L17.9333 17.4222C18.5556 16.8 18.7333 15.9333 18.4889 15.1556C17.6474 12.5953 17.2198 9.91721 17.2222 7.22222C17.2222 6.63285 16.9881 6.06762 16.5713 5.65087C16.1546 5.23413 15.5894 5 15 5H7.22222C6.63285 5 6.06762 5.23413 5.65087 5.65087C5.23413 6.06762 5 6.63285 5 7.22222C5 17.2415 8.98015 26.8504 16.0649 33.9351C23.1496 41.0199 32.7585 45 42.7778 45C43.3671 45 43.9324 44.7659 44.3491 44.3491C44.7659 43.9324 45 43.3671 45 42.7778V35C45 34.4106 44.7659 33.8454 44.3491 33.4287C43.9324 33.0119 43.3671 32.7778 42.7778 32.7778Z" fill="#42B6FA"/>
</svg>
