<svg width="50" height="50" viewBox="0 0 50 50" fill="none" xmlns="http://www.w3.org/2000/svg">
<path d="M19.8155 4.08386C14.6321 5.36456 10.1903 8.52005 7.24747 12.7914H14.6087C15.0375 11.4796 15.5291 10.2323 16.0899 9.1109C17.105 7.08076 18.3628 5.33057 19.8151 4.08386H19.8155ZM30.184 4.08386C31.6367 5.33114 32.8947 7.08062 33.9092 9.1109C34.4699 10.2323 34.9616 11.4796 35.3904 12.7914H42.7516C39.8093 8.52005 35.367 5.3645 30.1836 4.08386H30.184ZM23.5635 5.16131C21.8257 5.78997 20.0956 7.5417 18.6713 10.3905C18.3043 11.1249 17.9725 11.9378 17.6612 12.7921H23.5635L23.5635 5.16131ZM26.4361 5.16131V12.792H32.3383C32.0271 11.9378 31.6952 11.1249 31.3283 10.3903C29.9039 7.54169 28.1739 5.78994 26.4361 5.16117L26.4361 5.16131ZM5.58724 15.6647C4.42292 18.0801 3.68624 20.7508 3.50021 23.5643H12.8364C12.925 20.7669 13.2618 18.1087 13.8237 15.6647H5.58724ZM16.786 15.6647C16.1824 18.0579 15.7848 20.7234 15.6862 23.5643H23.5636V15.6647H16.786ZM26.4362 15.6647V23.5643H34.3136C34.2151 20.7234 33.8175 18.0579 33.2139 15.6647H26.4362ZM36.1761 15.6647C36.7385 18.1087 37.0754 20.7669 37.1634 23.5643H46.4996C46.3131 20.7502 45.5764 18.0801 44.4126 15.6647H36.1761ZM3.50021 26.4369C3.68675 29.2511 4.42343 31.9211 5.58724 34.3366H13.8237C13.2608 31.8938 12.9239 29.2383 12.8365 26.4369H3.50021ZM15.6862 26.4369C15.7848 29.2733 16.1835 31.9506 16.7859 34.3366H23.5636V26.4369H15.6862ZM26.4362 26.4369V34.3366H33.2139C33.8164 31.9501 34.215 29.2733 34.3136 26.4369H26.4362ZM37.164 26.4369C37.0765 29.2383 36.7397 31.8938 36.1767 34.3366H44.4132C45.5775 31.9211 46.3142 29.2505 46.5002 26.4369H37.164ZM7.24776 37.2092C10.1983 41.4923 14.659 44.6427 19.8603 45.9167C18.3919 44.6622 17.1134 42.9144 16.0901 40.8669C15.5293 39.7449 15.0377 38.5182 14.6089 37.2086H7.24762L7.24776 37.2092ZM17.6609 37.2092C17.9716 38.0589 18.3052 38.8563 18.671 39.588C20.0953 42.4366 21.8254 44.2274 23.5632 44.8622V37.2092H17.6609ZM26.4359 37.2092V44.8622C28.1737 44.2274 29.9038 42.4372 31.3281 39.588C31.694 38.8563 32.0275 38.0589 32.3382 37.2092H26.4359ZM35.3907 37.2092C34.9619 38.5188 34.4703 39.7455 33.9095 40.8675C32.8861 42.9143 31.6077 44.6622 30.1393 45.9173C35.3405 44.6433 39.8018 41.4928 42.7518 37.2097H35.3905L35.3907 37.2092Z" fill="#42B6FA"/>
</svg>
