<svg width="50" height="50" viewBox="0 0 50 50" fill="none" xmlns="http://www.w3.org/2000/svg">
<path d="M6.19901 27.1391C5.90744 27.1391 5.67139 27.3752 5.67139 27.6668C5.67139 27.9583 5.90744 28.1947 6.19901 28.1947H6.20704C6.34671 28.1944 6.48045 28.1385 6.57893 28.0397C6.67705 27.9405 6.73187 27.8064 6.73082 27.6668C6.72908 27.3745 6.49128 27.1388 6.19901 27.1391Z" fill="white"/>
<path d="M9.28038 41.5555C9.28038 41.9864 8.9312 42.3359 8.50029 42.3359C8.06938 42.3359 7.71985 41.9864 7.71985 41.5555C7.71985 41.1246 8.06939 40.775 8.50029 40.775C8.93119 40.775 9.28038 41.1246 9.28038 41.5555Z" fill="white"/>
<path d="M40.0349 41.2158H38.7558C38.4642 41.2158 38.2282 41.4518 38.2282 41.7434C38.2282 42.0349 38.4642 42.271 38.7558 42.271H40.0349C40.3265 42.271 40.5625 42.0349 40.5625 41.7434C40.5625 41.4518 40.3265 41.2158 40.0349 41.2158Z" fill="white"/>
<path d="M44.762 26.6699H34.0286C33.7371 26.6699 33.5007 26.9063 33.5007 27.1975V30.3269C33.5007 30.6185 33.7371 30.8549 34.0286 30.8549C34.3199 30.8549 34.5563 30.6185 34.5563 30.3269V27.7254H44.2339V39.7845H34.5563V33.8458C34.5563 33.5542 34.3199 33.3178 34.0286 33.3178C33.7371 33.3178 33.5007 33.5542 33.5007 33.8458V40.3124C33.5007 40.6036 33.7371 40.84 34.0286 40.84H44.762C45.0535 40.84 45.2899 40.6036 45.2899 40.3124V27.1977C45.2899 26.9064 45.0535 26.67 44.762 26.67V26.6699Z" fill="white"/>
<path d="M23.3454 30.2643C23.8513 30.2643 24.3074 29.9595 24.5009 29.4919C24.6943 29.0247 24.5875 28.4866 24.2295 28.129C23.872 27.7715 23.3338 27.6643 22.8667 27.8581C22.3991 28.0515 22.0943 28.5076 22.0943 29.0136C22.0953 29.7043 22.6547 30.2636 23.3454 30.2643ZM23.3454 28.8183C23.4243 28.8183 23.4955 28.8658 23.5256 28.9388C23.5559 29.0118 23.5392 29.0959 23.4833 29.1518C23.4274 29.2073 23.3433 29.2241 23.2703 29.194C23.1977 29.1637 23.1498 29.0924 23.1498 29.0135C23.1502 28.9056 23.2375 28.8183 23.3454 28.8183Z" fill="white"/>
<path d="M22.7911 34.6365H22.7569C22.4653 34.6365 22.2289 34.8729 22.2289 35.1641C22.2289 35.4557 22.4653 35.6921 22.7569 35.6921H22.7911C23.0827 35.6921 23.3187 35.4557 23.3187 35.1641C23.3187 34.8729 23.0827 34.6365 22.7911 34.6365Z" fill="white"/>
<path d="M45.3582 24.7032H40.4682V7.97436C40.4675 7.45092 40.2594 6.94912 39.8893 6.57904C39.5191 6.20925 39.0173 6.00113 38.4939 6.00043H8.62794C8.10451 6.00113 7.6027 6.20924 7.23262 6.57904C6.86248 6.94918 6.65436 7.45096 6.65366 7.97436V24.5933H4.796C4.2991 24.5936 3.82243 24.7913 3.4712 25.1429C3.11957 25.4942 2.92193 25.9705 2.92159 26.4677V42.1257C2.92193 42.6229 3.11993 43.0992 3.4712 43.4505C3.82249 43.8021 4.29913 43.9997 4.796 44.0001H12.204C12.7013 43.9997 13.1776 43.8021 13.5292 43.4505C13.8805 43.0992 14.0781 42.6229 14.0788 42.1257V32.0726H18.84V33.7194C18.8393 34.2264 18.4283 34.6371 17.9213 34.6377C17.2065 34.6384 16.5207 34.9227 16.0151 35.4283C15.5095 35.9339 15.2249 36.6194 15.2239 37.3345C15.2239 37.6257 15.4603 37.8621 15.7518 37.8621H30.9396C31.2312 37.8621 31.4676 37.6257 31.4676 37.3345C31.4665 36.6417 31.1997 35.9762 30.7217 35.475C30.244 34.9736 29.5917 34.675 28.9 34.6408C28.8808 34.6387 28.8616 34.6377 28.8423 34.6377H28.7701C28.263 34.6373 27.852 34.2263 27.8514 33.7194V32.0726H31.7121V42.2803C31.7128 42.7363 31.894 43.1739 32.2166 43.4962C32.5393 43.8185 32.9765 44.0001 33.4325 44.0004H45.3584C45.8144 44.0001 46.2516 43.8185 46.5743 43.4962C46.8969 43.1735 47.0782 42.7364 47.0789 42.2803V26.4239C47.0782 25.9678 46.8969 25.5306 46.5743 25.2083C46.2516 24.8857 45.8145 24.7044 45.3584 24.7037L45.3582 24.7032ZM13.0232 42.1258C13.0225 42.578 12.6562 42.9443 12.204 42.9447H4.79601C4.34416 42.9443 3.97751 42.578 3.97681 42.1258V40.3394H13.0233L13.0232 42.1258ZM13.0232 27.1401L7.74874 27.1404C7.45717 27.1404 7.22111 27.3765 7.22111 27.668C7.22111 27.9596 7.45717 28.196 7.74874 28.196H13.0232V39.2842H3.97674V28.196H4.6821C4.97367 28.196 5.20972 27.9596 5.20972 27.668C5.20972 27.3765 4.97367 27.1404 4.6821 27.1404H3.97674V26.4679C3.97744 26.0157 4.34374 25.6494 4.79594 25.649H12.204C12.6562 25.6494 13.0225 26.0157 13.0232 26.4679L13.0232 27.1401ZM28.7697 35.6931V35.6935C29.1123 35.6938 29.4468 35.8014 29.7254 36.0011C30.0041 36.2009 30.2136 36.4823 30.3243 36.8071H16.3665C16.4776 36.4823 16.6867 36.2005 16.9657 36.0011C17.2444 35.8014 17.5786 35.6938 17.9214 35.6935C18.4449 35.6928 18.9467 35.4847 19.3168 35.1149C19.6869 34.7447 19.895 34.243 19.8957 33.7196V32.0731H26.7957V33.7199C26.7954 34.0398 26.8736 34.3551 27.0231 34.638H24.5965C24.3049 34.638 24.0685 34.8744 24.0685 35.1656C24.0685 35.4572 24.3049 35.6936 24.5965 35.6936L28.7697 35.6931ZM31.7779 25.9556L19.4704 25.956C19.1792 25.956 18.9428 26.1924 18.9428 26.4836C18.9428 26.7752 19.1792 27.0116 19.4704 27.0116H31.7118V31.0174H14.0791V27.0116H15.9522C16.2438 27.0116 16.4801 26.7755 16.4801 26.4839C16.4801 26.1924 16.2438 25.9563 15.9522 25.9563H14.0065C13.8947 25.5642 13.6587 25.2192 13.3336 24.9734C13.0085 24.7272 12.6122 24.5942 12.2043 24.5935H7.70955V7.97452C7.71025 7.4675 8.12125 7.05646 8.62824 7.0562H38.4942C39.0012 7.05654 39.4123 7.46754 39.4129 7.97452V24.7034H33.4327C33.0584 24.7041 32.6946 24.8267 32.396 25.0526C32.0974 25.2785 31.8809 25.5956 31.7786 25.9559L31.7779 25.9556ZM46.0226 42.2805C46.0219 42.6475 45.7247 42.9446 45.3577 42.945H33.4319C33.0649 42.9446 32.7674 42.6475 32.7671 42.2805V26.424C32.7674 26.057 33.0649 25.7599 33.4319 25.7595H45.3577C45.7247 25.7599 46.0219 26.057 46.0226 26.424V42.2805Z" fill="white"/>
</svg>
