<svg width="50" height="50" viewBox="0 0 50 50" fill="none" xmlns="http://www.w3.org/2000/svg">
<path d="M44.0384 9.6719C44.0402 9.11625 43.8193 8.58309 43.4252 8.19148L41.8392 6.60551C41.4403 6.22544 40.9102 6.01334 40.3591 6.01334C39.8077 6.01334 39.2776 6.22544 38.8787 6.60551L37.8639 7.62063C37.6329 7.49799 37.3688 7.45235 37.1101 7.49038C36.8512 7.52842 36.6117 7.64801 36.4258 7.83211L11.7165 32.5414C11.6751 32.5828 11.6398 32.6299 11.6115 32.681L7.97451 39.3525L6.57807 40.7459C6.09454 41.2295 5.90587 41.9342 6.08267 42.5945C6.25977 43.2551 6.77555 43.771 7.43619 43.948C8.09652 44.1251 8.80124 43.9362 9.28477 43.4526L10.6812 42.0562L17.3497 38.4192C17.4008 38.3909 17.4479 38.3556 17.4893 38.3142L42.1986 13.6049C42.3827 13.4193 42.5023 13.1795 42.5403 12.9209C42.5783 12.6619 42.533 12.3981 42.4104 12.1671L43.4252 11.152C43.8193 10.7604 44.0402 10.2273 44.0384 9.6719ZM13.0176 32.9751L13.9901 32.0025L18.0291 36.0412L17.0566 37.0137L13.0176 32.9751ZM14.8574 31.1353L31.1612 14.8315L35.1999 18.8702L18.8961 35.174L14.8574 31.1353ZM32.0282 13.9645L33.0007 12.9919L37.0394 17.0309L36.0669 18.0034L32.0282 13.9645ZM12.2968 33.988L16.0437 37.7349L10.4202 40.8009L9.22947 39.6114L12.2968 33.988ZM8.41884 42.5859C8.15015 42.8543 7.71469 42.8543 7.44633 42.5859C7.17764 42.3172 7.17764 41.8817 7.44633 41.6131L8.4715 40.5879L9.44401 41.5604L8.41884 42.5859ZM37.9073 16.1636L33.8683 12.1249L37.2938 8.69908L41.3328 12.7381L37.9073 16.1636ZM42.5591 10.2851L41.5866 11.2576L38.7743 8.44528L39.7468 7.47277C40.0921 7.15022 40.628 7.15022 40.9734 7.47277L42.559 9.05844C42.8974 9.39743 42.8974 9.94635 42.559 10.2851L42.5591 10.2851Z" fill="white"/>
<path d="M31.0866 17.0304C30.5788 17.0289 30.0913 17.2306 29.7334 17.5906L27.4287 19.8954C26.9451 20.3789 26.7565 21.0837 26.9333 21.744C27.1104 22.4046 27.6261 22.9204 28.2868 23.0975C28.9474 23.2746 29.6521 23.0856 30.1357 22.6021L32.4401 20.2976C32.7989 19.9386 33.0006 19.4517 33.0006 18.9441C33.0006 18.4365 32.7992 17.9496 32.4401 17.5909C32.081 17.2318 31.5942 17.0301 31.0866 17.0304ZM31.5729 19.4307L29.2684 21.7351V21.7348C28.9998 22.0035 28.5643 22.0035 28.2959 21.7348C28.0272 21.4664 28.0272 21.031 28.2959 20.7623L30.6004 18.4579C30.8691 18.1892 31.3045 18.1892 31.5729 18.4579C31.8416 18.7266 31.8416 19.162 31.5729 19.4304V19.4307Z" fill="white"/>
<path d="M6.47021 6.44342V18.4368H17.0543L20.8622 21.4832V18.4368H23.2609V6.44342H6.47021ZM22.0615 17.2374H19.6628V18.9885L17.474 17.2374H7.66956V7.64284H22.0618L22.0615 17.2374Z" fill="white"/>
<path d="M10.4858 12.1335L12.3851 10.2341L12.9277 10.7767L11.5709 12.1335L12.9277 13.4903L12.3851 14.0328L10.4858 12.1335ZM13.6325 15.4825L15.3538 8.59879L16.0982 8.78488L14.3773 15.6686L13.6325 15.4825ZM16.8031 13.4903L18.1599 12.1335L16.8031 10.7767L17.346 10.2341L19.2454 12.1335L17.346 14.0328L16.8031 13.4903Z" fill="white"/>
<path d="M32.0981 34.7223L33.9975 32.8229L34.54 33.3655L33.1832 34.7223L34.54 36.0791L33.9975 36.6216L32.0981 34.7223ZM35.2449 38.0713L36.9662 31.1876L37.7106 31.3737L35.9897 38.2574L35.2449 38.0713ZM38.4154 36.0791L39.7722 34.7223L38.4154 33.3655L38.9584 32.8229L40.8577 34.7223L38.9584 36.6216L38.4154 36.0791Z" fill="white"/>
<path d="M27.6795 28.5364V31.1876L25.0284 32.0713L27.6795 34.5331V40.5298H38.2636H40.4935H42.0715H44.4702V28.5364H27.6795ZM43.2708 39.3304H40.8721H38.6833H28.8789V34.1131L27.2377 32.5132L28.8789 32.1167V29.7359H43.2711L43.2708 39.3304Z" fill="white"/>
</svg>
