<svg width="50" height="50" viewBox="0 0 50 50" fill="none" xmlns="http://www.w3.org/2000/svg">
<path d="M21.4957 37.5409C19.1101 35.7781 17.171 33.4799 15.8345 30.8314C14.4983 28.1828 13.8021 25.2577 13.8014 22.2911V13.2538L15.3706 13.3759C15.6901 13.4002 16.0087 13.4127 16.3262 13.4129C19.099 13.4072 21.7905 12.4761 23.9738 10.7672L24.9994 9.96292L26.0248 10.7672C28.2081 12.4764 30.8996 13.4075 33.6724 13.4129C33.9902 13.4129 34.3088 13.4005 34.628 13.3759L36.1971 13.2538V22.2911C36.1966 25.2576 35.5003 28.1829 34.164 30.8314C32.8276 33.4801 30.8885 35.7783 28.5029 37.5415L24.9993 40.1114L21.4957 37.5409Z" stroke="white" stroke-width="1.24422" stroke-linecap="round" stroke-linejoin="round"/>
<path d="M20.5832 40.7972C17.5764 38.5753 15.1323 35.6786 13.4478 32.3405C11.7636 29.002 10.886 25.3152 10.8852 21.576V10.1851L12.863 10.339C13.2657 10.3697 13.6673 10.3853 14.0675 10.3857C17.5624 10.3784 20.9548 9.2049 23.7067 7.05091L24.9995 6.0372L26.2919 7.05091C29.0438 9.20529 32.4362 10.3788 35.9311 10.3857C36.3316 10.3857 36.7332 10.37 37.1356 10.339L39.1134 10.1851V21.576C39.1126 25.315 38.235 29.0022 36.5508 32.3405C34.8663 35.6789 32.4222 38.5756 29.4153 40.798L24.9993 44.0372L20.5832 40.7972Z" stroke="white" stroke-width="1.56824" stroke-linecap="round" stroke-linejoin="round"/>
<path d="M30.6613 25.1107C30.6613 28.242 28.123 30.7804 24.9918 30.7804C21.8607 30.7804 19.3223 28.242 19.3223 25.1107C19.3223 21.9795 21.8607 19.4412 24.9918 19.4412C28.123 19.4412 30.6613 21.9795 30.6613 25.1107Z" stroke="white" stroke-width="1.61474" stroke-miterlimit="10"/>
<path d="M27.5574 23.4421L24.2203 26.7792L22.7132 25.2721" stroke="white" stroke-width="0.897075" stroke-miterlimit="10" stroke-linecap="round" stroke-linejoin="round"/>
</svg>
