<svg width="50" height="50" viewBox="0 0 50 50" fill="none" xmlns="http://www.w3.org/2000/svg">
<path d="M41.4392 42.3828L38.239 42.3812V19.9795L41.4392 19.9811V42.3828ZM41.5048 18.381L38.1798 18.3794C37.3285 18.3778 36.6389 19.0962 36.6389 19.9827V42.3764C36.6389 43.2629 37.3285 43.9797 38.1798 43.9813L41.4984 43.9829C42.3497 43.9829 43.0394 43.2645 43.0394 42.3796V19.9811C43.0394 19.0978 42.3529 18.381 41.5048 18.381ZM22.2378 42.3812H19.0375V31.1803H22.2378V42.3812ZM31.8385 42.3812H28.6383V26.38H31.8385V42.3812ZM18.9687 43.9813H22.3066C23.153 43.9813 23.8379 43.2677 23.8379 42.386V31.1755C23.8379 30.2939 23.153 29.5802 22.3066 29.5802H18.9687C18.1223 29.5802 17.4374 30.2939 17.4374 31.1755V42.386C17.4374 43.2677 18.1223 43.9813 18.9687 43.9813ZM28.5711 43.9813H31.9057C32.312 43.9805 32.7014 43.8187 32.9887 43.5314C33.276 43.2441 33.4378 42.8547 33.4386 42.4484V26.3128C33.4378 25.9065 33.276 25.5171 32.9887 25.2298C32.7014 24.9425 32.312 24.7807 31.9057 24.7799H28.5711C28.1648 24.7807 27.7753 24.9425 27.4881 25.2298C27.2008 25.5171 27.039 25.9065 27.0381 26.3128V42.4484C27.0381 43.2965 27.7246 43.9813 28.5711 43.9813Z" fill="white"/>
<path d="M34.9292 13.1757L28.596 6.20893V6.20925C28.4763 6.07631 28.3059 6.00057 28.1271 5.99994H7.86096C7.35687 5.99994 6.87379 6.20013 6.51747 6.55651C6.16108 6.9129 5.96089 7.39629 5.96089 7.9V42.0999C5.96089 42.6036 6.16108 43.087 6.51747 43.4434C6.87385 43.7997 7.35692 43.9999 7.86096 43.9999H33.1941C33.6982 43.9999 34.1815 43.7997 34.5376 43.4434C34.8939 43.087 35.0941 42.6036 35.0941 42.0999V13.6001C35.0938 13.4433 35.0351 13.2921 34.9295 13.1759L34.9292 13.1757ZM28.7607 8.27368L33.0292 12.9667H29.394C29.0442 12.9667 28.7607 12.6832 28.7607 12.3334L28.7607 8.27368ZM33.1938 42.7334H7.86072C7.51094 42.7334 7.22747 42.45 7.22747 42.1002V7.90029C7.22747 7.55051 7.51094 7.26704 7.86072 7.26704H27.4937V12.3337C27.4937 12.8375 27.6939 13.3209 28.0503 13.6772C28.4067 14.0336 28.8901 14.2338 29.3938 14.2338H33.8272V42.1004C33.8272 42.2685 33.7602 42.4294 33.6414 42.5482C33.5226 42.667 33.3617 42.7337 33.1936 42.7337L33.1938 42.7334ZM18.5707 18.7551C18.5964 18.5725 18.5411 18.3878 18.4195 18.2488C18.2979 18.1102 18.1216 18.0314 17.9371 18.0332H14.1942V13.5999C14.1942 13.4321 14.1275 13.2708 14.0087 13.152C13.8899 13.0332 13.7287 12.9666 13.5609 12.9666C12.2585 12.9654 11.0059 13.4654 10.0625 14.3632C9.11933 15.2611 8.55776 16.4877 8.49493 17.7884C8.43209 19.0892 8.87237 20.3642 9.72466 21.3488C10.5767 22.3334 11.7752 22.9522 13.0717 23.0767C14.3681 23.2012 15.6625 22.8215 16.6864 22.017C17.7104 21.2124 18.385 20.0443 18.5708 18.7551L18.5707 18.7551ZM9.76103 18.0332C9.7604 17.1347 10.0781 16.2651 10.6577 15.5788C11.2375 14.8924 12.0417 14.4336 12.9277 14.284V18.6665C12.9277 18.8346 12.9943 18.9955 13.1131 19.1143C13.2319 19.2331 13.3931 19.2998 13.5609 19.2998H17.1392C16.7348 20.4317 15.8187 21.3055 14.6688 21.6558C13.5192 22.0066 12.2712 21.7922 11.3042 21.0782C10.3372 20.3645 9.7649 19.2353 9.76112 18.0332L9.76103 18.0332ZM16.0942 11.7001C15.7444 11.7001 15.461 11.9835 15.461 12.3333V16.1331C15.461 16.3012 15.5276 16.4622 15.6464 16.5809C15.7652 16.6997 15.9261 16.7667 16.0942 16.7667H19.1976C19.5012 16.7733 19.7671 16.5634 19.8309 16.266C19.879 16.0137 19.9 15.7569 19.8941 15.4999C19.8941 14.492 19.4937 13.5256 18.7812 12.8129C18.0685 12.1004 17.1021 11.7001 16.0942 11.7001ZM16.7275 15.4999V13.0488C17.2712 13.1893 17.7526 13.5061 18.0965 13.9495C18.4403 14.3933 18.6273 14.9385 18.6276 15.4999H16.7275ZM31.9276 16.7665C31.9276 16.9343 31.8609 17.0955 31.7421 17.2143C31.6233 17.3328 31.4621 17.3998 31.2943 17.3998H22.4276C22.0778 17.3998 21.7943 17.1163 21.7943 16.7665C21.7943 16.4167 22.0778 16.1329 22.4276 16.1329H31.2943C31.4621 16.1329 31.6233 16.1999 31.7421 16.3187C31.8609 16.4372 31.9276 16.5984 31.9276 16.7665ZM31.9276 19.2995C31.9276 19.4676 31.8609 19.6289 31.7421 19.7473C31.6233 19.8661 31.4621 19.9331 31.2943 19.9331H22.4276C22.0778 19.9331 21.7943 19.6493 21.7943 19.2995C21.7943 18.9497 22.0778 18.6662 22.4276 18.6662H31.2943C31.4621 18.6662 31.6233 18.7332 31.7421 18.8517C31.8609 18.9705 31.9276 19.1317 31.9276 19.2995ZM31.9276 21.8328C31.9276 22.0009 31.8609 22.1619 31.7421 22.2807C31.6233 22.3994 31.4621 22.4664 31.2943 22.4664H22.4276C22.0778 22.4664 21.7943 22.1826 21.7943 21.8328C21.7943 21.483 22.0778 21.1996 22.4276 21.1996H31.2943C31.4621 21.1996 31.6233 21.2665 31.7421 21.385C31.8609 21.5038 31.9276 21.665 31.9276 21.8328Z" fill="white"/>
</svg>
